<mxfile host="app.diagrams.net" modified="2022-11-30T22:22:57.817Z" agent="5.0 (Windows NT 10.0; Win64; x64) AppleWebKit/537.36 (KHTML, like Gecko) Chrome/107.0.0.0 Safari/537.36 Edg/107.0.1418.62" version="20.6.0" etag="hXi4VpYin2qFy0FHj-Cl" type="github">
  <diagram id="_D2GM5yeNmXsg2AjUnIa" name="Page-1">
    <mxGraphModel dx="1562" dy="1541" grid="1" gridSize="10" guides="1" tooltips="1" connect="1" arrows="1" fold="1" page="1" pageScale="1" pageWidth="850" pageHeight="1100" math="0" shadow="0">
      <root>
        <mxCell id="0" />
        <mxCell id="1" parent="0" />
        <mxCell id="6s0p3I9b8KLNKxU6c0i5-51" value="" style="edgeStyle=orthogonalEdgeStyle;rounded=0;orthogonalLoop=1;jettySize=auto;html=1;" edge="1" parent="1" source="6s0p3I9b8KLNKxU6c0i5-1" target="6s0p3I9b8KLNKxU6c0i5-2">
          <mxGeometry relative="1" as="geometry">
            <Array as="points">
              <mxPoint x="378" y="270" />
              <mxPoint x="378" y="270" />
            </Array>
          </mxGeometry>
        </mxCell>
        <mxCell id="6s0p3I9b8KLNKxU6c0i5-56" value="Gi 1/0/1" style="edgeLabel;html=1;align=center;verticalAlign=middle;resizable=0;points=[];" vertex="1" connectable="0" parent="6s0p3I9b8KLNKxU6c0i5-51">
          <mxGeometry x="-0.7525" relative="1" as="geometry">
            <mxPoint as="offset" />
          </mxGeometry>
        </mxCell>
        <mxCell id="6s0p3I9b8KLNKxU6c0i5-57" value="Gi 2/13" style="edgeLabel;html=1;align=center;verticalAlign=middle;resizable=0;points=[];" vertex="1" connectable="0" parent="6s0p3I9b8KLNKxU6c0i5-51">
          <mxGeometry x="0.7241" relative="1" as="geometry">
            <mxPoint as="offset" />
          </mxGeometry>
        </mxCell>
        <mxCell id="6s0p3I9b8KLNKxU6c0i5-1" value="&lt;table style=&quot;border-collapse:&lt;br/&gt; collapse;width:124pt&quot; width=&quot;165&quot; cellspacing=&quot;0&quot; cellpadding=&quot;0&quot; border=&quot;0&quot;&gt;&lt;tbody&gt;&lt;tr style=&quot;height:15.75pt&quot; height=&quot;21&quot;&gt;&lt;br/&gt;  &lt;td style=&quot;height:15.75pt;width:124pt&quot; width=&quot;165&quot; class=&quot;xl66&quot; height=&quot;21&quot;&gt;148.4.101.99&lt;br&gt;WS-C3750K-24P-S&lt;br&gt;LLC_PoE_Plus&lt;/td&gt;&lt;/tr&gt;&lt;/tbody&gt;&lt;/table&gt;" style="shape=mxgraph.cisco.switches.workgroup_switch;sketch=0;html=1;pointerEvents=1;dashed=0;fillColor=#036897;strokeColor=#ffffff;strokeWidth=2;verticalLabelPosition=bottom;verticalAlign=top;align=center;outlineConnect=0;" vertex="1" parent="1">
          <mxGeometry x="340" y="310" width="120" height="50" as="geometry" />
        </mxCell>
        <object label="" id="6s0p3I9b8KLNKxU6c0i5-2">
          <mxCell style="shape=mxgraph.cisco.switches.workgroup_switch;sketch=0;html=1;pointerEvents=1;dashed=0;fillColor=#036897;strokeColor=#ffffff;strokeWidth=2;verticalLabelPosition=bottom;verticalAlign=top;align=center;outlineConnect=0;" vertex="1" parent="1">
            <mxGeometry x="320" y="150" width="116" height="50" as="geometry" />
          </mxCell>
        </object>
        <mxCell id="6s0p3I9b8KLNKxU6c0i5-71" style="edgeStyle=orthogonalEdgeStyle;rounded=0;orthogonalLoop=1;jettySize=auto;html=1;" edge="1" parent="1" source="6s0p3I9b8KLNKxU6c0i5-24">
          <mxGeometry relative="1" as="geometry">
            <mxPoint x="320" y="230" as="targetPoint" />
            <Array as="points">
              <mxPoint x="320" y="225" />
            </Array>
          </mxGeometry>
        </mxCell>
        <mxCell id="6s0p3I9b8KLNKxU6c0i5-72" value="10Gi 1/1/2" style="edgeLabel;html=1;align=center;verticalAlign=middle;resizable=0;points=[];" vertex="1" connectable="0" parent="6s0p3I9b8KLNKxU6c0i5-71">
          <mxGeometry x="-0.8745" y="1" relative="1" as="geometry">
            <mxPoint x="14" as="offset" />
          </mxGeometry>
        </mxCell>
        <object label="&lt;table width=&quot;165&quot; cellspacing=&quot;0&quot; cellpadding=&quot;0&quot; border=&quot;0&quot;&gt;&lt;tbody&gt;&lt;tr style=&quot;height:15.75pt&quot; height=&quot;21&quot;&gt;&lt;td style=&quot;height:15.75pt;width:124pt&quot; width=&quot;165&quot; class=&quot;xl66&quot; height=&quot;21&quot;&gt;&lt;/td&gt;&lt;/tr&gt;&lt;/tbody&gt;&lt;/table&gt;148.4.101.20&lt;br&gt;WS-C3750X-48P&lt;br&gt;CH_Basement_A_Core" id="6s0p3I9b8KLNKxU6c0i5-24">
          <mxCell style="shape=mxgraph.cisco.switches.workgroup_switch;sketch=0;html=1;pointerEvents=1;dashed=0;fillColor=#036897;strokeColor=#ffffff;strokeWidth=2;verticalLabelPosition=bottom;verticalAlign=top;align=center;outlineConnect=0;" vertex="1" parent="1">
            <mxGeometry x="-200" y="200" width="116" height="50" as="geometry" />
          </mxCell>
        </object>
        <mxCell id="6s0p3I9b8KLNKxU6c0i5-74" style="edgeStyle=orthogonalEdgeStyle;rounded=0;orthogonalLoop=1;jettySize=auto;html=1;entryX=0.98;entryY=0.5;entryDx=0;entryDy=0;entryPerimeter=0;" edge="1" parent="1" source="6s0p3I9b8KLNKxU6c0i5-25" target="6s0p3I9b8KLNKxU6c0i5-2">
          <mxGeometry relative="1" as="geometry" />
        </mxCell>
        <mxCell id="6s0p3I9b8KLNKxU6c0i5-75" value="Gi 1/0/1" style="edgeLabel;html=1;align=center;verticalAlign=middle;resizable=0;points=[];" vertex="1" connectable="0" parent="6s0p3I9b8KLNKxU6c0i5-74">
          <mxGeometry x="-0.3596" relative="1" as="geometry">
            <mxPoint x="16" as="offset" />
          </mxGeometry>
        </mxCell>
        <mxCell id="6s0p3I9b8KLNKxU6c0i5-76" value="Gi 2/11" style="edgeLabel;html=1;align=center;verticalAlign=middle;resizable=0;points=[];" vertex="1" connectable="0" parent="6s0p3I9b8KLNKxU6c0i5-74">
          <mxGeometry x="0.6996" y="-1" relative="1" as="geometry">
            <mxPoint x="4" as="offset" />
          </mxGeometry>
        </mxCell>
        <object label="&lt;br&gt;148.4.101.106&lt;br&gt;WS-C3750K-24P-S&lt;br&gt;BK_E_Sport" id="6s0p3I9b8KLNKxU6c0i5-25">
          <mxCell style="shape=mxgraph.cisco.switches.workgroup_switch;sketch=0;html=1;pointerEvents=1;dashed=0;fillColor=#036897;strokeColor=#ffffff;strokeWidth=2;verticalLabelPosition=bottom;verticalAlign=top;align=center;outlineConnect=0;" vertex="1" parent="1">
            <mxGeometry x="560" y="150" width="116" height="50" as="geometry" />
          </mxCell>
        </object>
        <mxCell id="6s0p3I9b8KLNKxU6c0i5-59" style="edgeStyle=orthogonalEdgeStyle;rounded=0;orthogonalLoop=1;jettySize=auto;html=1;entryX=0;entryY=0.98;entryDx=0;entryDy=0;entryPerimeter=0;" edge="1" parent="1" source="6s0p3I9b8KLNKxU6c0i5-28" target="6s0p3I9b8KLNKxU6c0i5-2">
          <mxGeometry relative="1" as="geometry">
            <Array as="points">
              <mxPoint x="320" y="265" />
            </Array>
          </mxGeometry>
        </mxCell>
        <mxCell id="6s0p3I9b8KLNKxU6c0i5-60" value="Gi 5/2" style="edgeLabel;html=1;align=center;verticalAlign=middle;resizable=0;points=[];" vertex="1" connectable="0" parent="6s0p3I9b8KLNKxU6c0i5-59">
          <mxGeometry x="0.9155" relative="1" as="geometry">
            <mxPoint as="offset" />
          </mxGeometry>
        </mxCell>
        <mxCell id="6s0p3I9b8KLNKxU6c0i5-61" value="10Gi 1/1/2" style="edgeLabel;html=1;align=center;verticalAlign=middle;resizable=0;points=[];" vertex="1" connectable="0" parent="6s0p3I9b8KLNKxU6c0i5-59">
          <mxGeometry x="-0.8905" relative="1" as="geometry">
            <mxPoint x="7" as="offset" />
          </mxGeometry>
        </mxCell>
        <object label="&lt;table width=&quot;165&quot; cellspacing=&quot;0&quot; cellpadding=&quot;0&quot; border=&quot;0&quot;&gt;&lt;tbody&gt;&lt;tr style=&quot;height:15.75pt&quot; height=&quot;21&quot;&gt;&lt;td style=&quot;height:15.75pt;width:124pt&quot; width=&quot;165&quot; class=&quot;xl66&quot; height=&quot;21&quot;&gt;&lt;/td&gt;&lt;/tr&gt;&lt;/tbody&gt;&lt;/table&gt;148.4.101.21&lt;br&gt;WS-C3750X-48P&lt;br&gt;CH_Basement_A_Core" id="6s0p3I9b8KLNKxU6c0i5-28">
          <mxCell style="shape=mxgraph.cisco.switches.workgroup_switch;sketch=0;html=1;pointerEvents=1;dashed=0;fillColor=#036897;strokeColor=#ffffff;strokeWidth=2;verticalLabelPosition=bottom;verticalAlign=top;align=center;outlineConnect=0;" vertex="1" parent="1">
            <mxGeometry x="-320" y="240" width="116" height="50" as="geometry" />
          </mxCell>
        </object>
        <mxCell id="6s0p3I9b8KLNKxU6c0i5-37" style="edgeStyle=orthogonalEdgeStyle;rounded=0;orthogonalLoop=1;jettySize=auto;html=1;entryX=0.5;entryY=0;entryDx=0;entryDy=0;entryPerimeter=0;exitX=0;exitY=0.5;exitDx=0;exitDy=0;exitPerimeter=0;" edge="1" parent="1" source="6s0p3I9b8KLNKxU6c0i5-36">
          <mxGeometry relative="1" as="geometry">
            <mxPoint x="700" y="-23.965517241379303" as="sourcePoint" />
            <mxPoint x="398" y="151" as="targetPoint" />
          </mxGeometry>
        </mxCell>
        <mxCell id="6s0p3I9b8KLNKxU6c0i5-40" value="Gi 2/6" style="edgeLabel;html=1;align=center;verticalAlign=middle;resizable=0;points=[];" vertex="1" connectable="0" parent="6s0p3I9b8KLNKxU6c0i5-37">
          <mxGeometry x="-0.7328" relative="1" as="geometry">
            <mxPoint x="41" as="offset" />
          </mxGeometry>
        </mxCell>
        <mxCell id="6s0p3I9b8KLNKxU6c0i5-53" value="Gi 1/13" style="edgeLabel;html=1;align=center;verticalAlign=middle;resizable=0;points=[];" vertex="1" connectable="0" parent="6s0p3I9b8KLNKxU6c0i5-37">
          <mxGeometry x="0.897" relative="1" as="geometry">
            <mxPoint y="-27" as="offset" />
          </mxGeometry>
        </mxCell>
        <object label="148.4.101.111&lt;br&gt;WS-C3750X-48P-S&lt;br&gt;WC_1FL" id="6s0p3I9b8KLNKxU6c0i5-36">
          <mxCell style="shape=mxgraph.cisco.switches.workgroup_switch;sketch=0;html=1;pointerEvents=1;dashed=0;fillColor=#036897;strokeColor=#ffffff;strokeWidth=2;verticalLabelPosition=bottom;verticalAlign=top;align=center;outlineConnect=0;" vertex="1" parent="1">
            <mxGeometry x="720" y="-50" width="116" height="50" as="geometry" />
          </mxCell>
        </object>
        <object label="&lt;table width=&quot;165&quot; cellspacing=&quot;0&quot; cellpadding=&quot;0&quot; border=&quot;0&quot;&gt;&lt;tbody&gt;&lt;tr style=&quot;height:15.75pt&quot; height=&quot;21&quot;&gt;&lt;td style=&quot;height:15.75pt;width:124pt&quot; width=&quot;165&quot; class=&quot;xl66&quot; height=&quot;21&quot;&gt;&lt;/td&gt;&lt;/tr&gt;&lt;/tbody&gt;&lt;/table&gt;148.4.101.136&lt;br&gt;WS-C3750X-48P&lt;br&gt;CH_Esports" id="6s0p3I9b8KLNKxU6c0i5-42">
          <mxCell style="shape=mxgraph.cisco.switches.workgroup_switch;sketch=0;html=1;pointerEvents=1;dashed=0;fillColor=#036897;strokeColor=#ffffff;strokeWidth=2;verticalLabelPosition=bottom;verticalAlign=top;align=center;outlineConnect=0;" vertex="1" parent="1">
            <mxGeometry x="-80" y="-10" width="116" height="50" as="geometry" />
          </mxCell>
        </object>
        <mxCell id="6s0p3I9b8KLNKxU6c0i5-78" value="" style="edgeStyle=orthogonalEdgeStyle;rounded=0;orthogonalLoop=1;jettySize=auto;html=1;" edge="1" parent="1" source="6s0p3I9b8KLNKxU6c0i5-77" target="6s0p3I9b8KLNKxU6c0i5-2">
          <mxGeometry relative="1" as="geometry" />
        </mxCell>
        <mxCell id="6s0p3I9b8KLNKxU6c0i5-79" value="Gi 1/0/2&lt;br&gt;Gi 1/0/1" style="edgeLabel;html=1;align=center;verticalAlign=middle;resizable=0;points=[];" vertex="1" connectable="0" parent="6s0p3I9b8KLNKxU6c0i5-78">
          <mxGeometry x="-0.6189" y="-1" relative="1" as="geometry">
            <mxPoint as="offset" />
          </mxGeometry>
        </mxCell>
        <mxCell id="6s0p3I9b8KLNKxU6c0i5-80" value="Gi 2/17&lt;br&gt;Gi 2/18" style="edgeLabel;html=1;align=center;verticalAlign=middle;resizable=0;points=[];" vertex="1" connectable="0" parent="6s0p3I9b8KLNKxU6c0i5-78">
          <mxGeometry x="0.6457" y="-1" relative="1" as="geometry">
            <mxPoint y="5" as="offset" />
          </mxGeometry>
        </mxCell>
        <object label="" id="6s0p3I9b8KLNKxU6c0i5-77">
          <mxCell style="shape=mxgraph.cisco.switches.workgroup_switch;sketch=0;html=1;pointerEvents=1;dashed=0;fillColor=#036897;strokeColor=#ffffff;strokeWidth=2;verticalLabelPosition=bottom;verticalAlign=top;align=center;outlineConnect=0;" vertex="1" parent="1">
            <mxGeometry x="240" y="20" width="116" height="50" as="geometry" />
          </mxCell>
        </object>
        <mxCell id="6s0p3I9b8KLNKxU6c0i5-81" value="148.4.101.107&lt;br&gt;LLC_4FL_WIFI" style="text;html=1;align=center;verticalAlign=middle;resizable=0;points=[];autosize=1;strokeColor=none;fillColor=none;" vertex="1" parent="1">
          <mxGeometry x="120" y="30" width="100" height="40" as="geometry" />
        </mxCell>
        <mxCell id="6s0p3I9b8KLNKxU6c0i5-91" value="" style="edgeStyle=orthogonalEdgeStyle;rounded=0;orthogonalLoop=1;jettySize=auto;html=1;" edge="1" parent="1" source="6s0p3I9b8KLNKxU6c0i5-82" target="6s0p3I9b8KLNKxU6c0i5-90">
          <mxGeometry relative="1" as="geometry" />
        </mxCell>
        <mxCell id="6s0p3I9b8KLNKxU6c0i5-92" value="Gi 1/1" style="edgeLabel;html=1;align=center;verticalAlign=middle;resizable=0;points=[];" vertex="1" connectable="0" parent="6s0p3I9b8KLNKxU6c0i5-91">
          <mxGeometry x="-0.9221" y="-1" relative="1" as="geometry">
            <mxPoint as="offset" />
          </mxGeometry>
        </mxCell>
        <object label="&lt;br&gt;148.4.101.65&lt;br&gt;WS-C6509-E&lt;br&gt;M_Build_Core" id="6s0p3I9b8KLNKxU6c0i5-82">
          <mxCell style="shape=mxgraph.cisco.switches.workgroup_switch;sketch=0;html=1;pointerEvents=1;dashed=0;fillColor=#036897;strokeColor=#ffffff;strokeWidth=2;verticalLabelPosition=bottom;verticalAlign=top;align=center;outlineConnect=0;" vertex="1" parent="1">
            <mxGeometry x="760" y="430" width="116" height="50" as="geometry" />
          </mxCell>
        </object>
        <mxCell id="6s0p3I9b8KLNKxU6c0i5-90" value="" style="shape=waypoint;sketch=0;size=6;pointerEvents=1;points=[];fillColor=#036897;resizable=0;rotatable=0;perimeter=centerPerimeter;snapToPoint=1;verticalAlign=top;strokeColor=#ffffff;dashed=0;strokeWidth=2;" vertex="1" parent="1">
          <mxGeometry x="300" y="250" width="40" height="40" as="geometry" />
        </mxCell>
        <object label="&lt;br&gt;148.4.101.106&lt;br&gt;WS-C3750K-24P-S&lt;br&gt;BK_E_Sport" id="6s0p3I9b8KLNKxU6c0i5-93">
          <mxCell style="shape=mxgraph.cisco.switches.workgroup_switch;sketch=0;html=1;pointerEvents=1;dashed=0;fillColor=#036897;strokeColor=#ffffff;strokeWidth=2;verticalLabelPosition=bottom;verticalAlign=top;align=center;outlineConnect=0;" vertex="1" parent="1">
            <mxGeometry x="120" y="320" width="116" height="50" as="geometry" />
          </mxCell>
        </object>
      </root>
    </mxGraphModel>
  </diagram>
</mxfile>
